# xmcd
#
# Track frame offsets: 
#        150
#        28860
#        54558
#        73658
#        95400
#        124670
#        153295
#        174650
#        201900
#        225678
#        246213
#        266333
#
# Disc length: 3721 seconds
#
# Revision: 4
# Processed by: cddbd v1.5.2PL0 Copyright (c) Steve Scherf et al.
# Submitted via: ExactAudioCopy v1.0b3
#
DISCID=a30e870c
DTITLE=Troop - A Lil' Sumpin' Sumpin'
DYEAR=1994
DGENRE=Soul
TTITLE0=Let's Get Warm
TTITLE1=Break A Dawn
TTITLE2=Poohnany
TTITLE3=Blowin' My Mind
TTITLE4=Get It On
TTITLE5=Get Loose
TTITLE6=Around
TTITLE7=That's The Way
TTITLE8=Miss U
TTITLE9=Got Me Goin'
TTITLE10=Do Me
TTITLE11=Sumpin' To Ride Too
EXTD=
EXTT0=
EXTT1=
EXTT2=
EXTT3=
EXTT4=
EXTT5=
EXTT6=
EXTT7=
EXTT8=
EXTT9=
EXTT10=
EXTT11=
PLAYORDER=
